<svg width="1600" height="900" viewBox="0 0 1600 900" fill="none" xmlns="http://www.w3.org/2000/svg" role="img" aria-labelledby="title desc">
  <title id="title">GitHub Copilot, contexto e o que ficou do workshop na FIAP</title>
  <desc id="desc">Capa editorial com blocos geométricos e tipografia sobre GitHub Copilot, contexto e workflow.</desc>
  <rect width="1600" height="900" fill="#F5F0E8"/>
  <rect x="68" y="68" width="1464" height="764" rx="28" fill="#111111"/>
  <rect x="110" y="110" width="520" height="280" rx="18" fill="#F5F0E8"/>
  <rect x="650" y="110" width="250" height="120" rx="60" fill="#92C5FF"/>
  <rect x="920" y="110" width="220" height="120" rx="18" fill="#EACB72"/>
  <rect x="1160" y="110" width="330" height="120" rx="18" fill="#F5F0E8"/>
  <rect x="110" y="420" width="1380" height="42" rx="21" fill="#92C5FF"/>
  <rect x="110" y="490" width="960" height="24" rx="12" fill="#5A5A5A"/>
  <rect x="110" y="530" width="1030" height="24" rx="12" fill="#5A5A5A"/>
  <rect x="110" y="570" width="900" height="24" rx="12" fill="#5A5A5A"/>
  <rect x="110" y="652" width="270" height="110" rx="18" fill="#EACB72"/>
  <rect x="404" y="652" width="270" height="110" rx="18" fill="#F5F0E8"/>
  <rect x="698" y="652" width="270" height="110" rx="18" fill="#92C5FF"/>
  <rect x="992" y="652" width="498" height="110" rx="18" fill="#1F1F1F" stroke="#F5F0E8" stroke-width="4"/>
  <text x="110" y="190" fill="#111111" font-family="Georgia, 'Times New Roman', serif" font-size="44" font-weight="700">
    GitHub Copilot
  </text>
  <text x="110" y="244" fill="#111111" font-family="Georgia, 'Times New Roman', serif" font-size="44" font-weight="700">
    contexto e o que ficou
  </text>
  <text x="110" y="298" fill="#111111" font-family="Georgia, 'Times New Roman', serif" font-size="44" font-weight="700">
    do workshop na FIAP
  </text>
  <text x="112" y="445" fill="#111111" font-family="'Helvetica Neue', Arial, sans-serif" font-size="22" font-weight="700" letter-spacing="0.08em">
    NOTAS SOBRE AGENTES, WORKFLOWS E ORGANIZAÇÃO DE CONTEXTO
  </text>
  <text x="1018" y="717" fill="#F5F0E8" font-family="'Helvetica Neue', Arial, sans-serif" font-size="28" font-weight="600">
    BOLIVARALENCASTRO.COM.BR
  </text>
</svg>
